<svg xmlns="http://www.w3.org/2000/svg" viewBox="0 0 24 20"><defs><style>.cls-1{fill:#6e6e70;}</style></defs><title>Asset 26</title><g id="Layer_2" data-name="Layer 2"><g id="HOME"><g id="New_Symbol_72" data-name="New Symbol 72"><g id="New_Symbol_64" data-name="New Symbol 64"><path class="cls-1" d="M22.41,9.47V6.36a2.93,2.93,0,0,0-3-2.9H9V9.61H22.27A.14.14,0,0,0,22.41,9.47Z"/><ellipse class="cls-1" cx="5.3" cy="6.61" rx="2.92" ry="2.86"/><path class="cls-1" d="M23.4,10.66H20.51l-.23,0H1.2V.59A.6.6,0,0,0,0,.59V19.41a.6.6,0,0,0,1.2,0V16H22v3.38a.64.64,0,0,0,.6.59c.56,0,.6-.59.6-.59V13.54a2.84,2.84,0,0,0-.57-1.7h.73a.59.59,0,1,0,0-1.18Z"/></g></g></g></g></svg>